<svg width="1440" height="243" viewBox="0 0 1440 243" fill="none" xmlns="http://www.w3.org/2000/svg">
<rect y="-32" width="1440" height="275" fill="#9BD7F3"/>
<path d="M0 130L111.788 159.463C123.055 162.433 134.914 162.319 146.122 159.134L347.349 101.948C357.625 99.0276 368.461 98.6849 378.9 100.95L703.027 171.275C715.717 174.028 728.942 172.918 740.995 168.086L817.604 137.374C829.596 132.567 842.747 131.443 855.381 134.144L1100.37 186.523C1120.85 190.903 1142.19 185.142 1157.69 171.048L1250.3 86.8258C1269.53 69.3373 1297.33 64.9876 1320.99 75.7665L1440 130V243H0V130Z" fill="#7BCEEF"/>
<mask id="mask0_32_225" style="mask-type:alpha" maskUnits="userSpaceOnUse" x="0" y="69" width="1440" height="174">
<path d="M0 130L111.788 159.463C123.055 162.433 134.914 162.319 146.122 159.134L347.349 101.948C357.625 99.0276 368.461 98.6849 378.9 100.95L703.027 171.275C715.717 174.028 728.942 172.918 740.995 168.086L817.604 137.374C829.596 132.567 842.747 131.443 855.381 134.144L1100.37 186.523C1120.85 190.903 1142.19 185.142 1157.69 171.048L1250.3 86.8258C1269.53 69.3373 1297.33 64.9876 1320.99 75.7665L1440 130V243H0V130Z" fill="#7BCEEF"/>
</mask>
<g mask="url(#mask0_32_225)">
<path d="M202.138 85.7688C190.236 77.6285 195.998 59 210.417 59H1429.57C1435.33 59 1440 63.6683 1440 69.4268C1440 75.1854 1435.33 79.8537 1429.57 79.8537H1416.42C1414.15 79.8537 1411.9 80.1801 1409.72 80.8228L1363.5 94.5L1365.5 98.5L1357 96.5V99.5L1353 98.5L1354 102L1348 100.5L1348.5 105.5L1343 103L1342 109L1337 105.5L1334.5 111L1330 108L1326 113L1320.5 108L1317 113L1312 111L1308.5 117L1302.5 112.5L1295.5 120.982L1289 112.5L1284 119.5L1276.5 112.5L1270.5 119.5L1267.5 112.5L1262 117.5L1258 111L1252 115L1249.5 109L1242.5 112.5L1240.5 105.5L1234.5 109L1233 103L1193.12 92.7919C1179.27 89.2442 1164.74 89.2515 1150.88 92.8131L1000.84 131.385C997.951 132.127 995.008 132.629 992.038 132.887L888.959 141.83C888.14 141.901 887.745 142.869 888.28 143.493C888.883 144.197 888.298 145.273 887.38 145.151L885.022 144.836C883.825 144.677 882.852 145.789 883.17 146.955C883.525 148.257 882.286 149.429 881.006 149.002L879.892 148.631C878.326 148.109 876.754 149.408 876.972 151.044C877.203 152.774 875.448 154.088 873.853 153.379L871.635 152.393C869.881 151.614 867.824 152.352 866.966 154.068L865.391 157.217C864.445 159.11 861.948 159.567 860.392 158.131L860.185 157.94C858.648 156.521 856.167 157.082 855.39 159.024C854.679 160.803 852.498 161.46 850.922 160.369L850.125 159.817C848.683 158.819 846.702 159.197 845.729 160.657L845.633 160.801C844.549 162.426 842.227 162.6 840.913 161.155C839.656 159.771 837.453 159.862 836.312 161.344L836.037 161.702C834.729 163.402 832.188 163.469 830.792 161.841L829.842 160.732C828.529 159.2 826.247 158.964 824.648 160.194L824.005 160.688C822.447 161.887 820.183 161.367 819.305 159.609C818.57 158.14 816.824 157.49 815.307 158.122L814.681 158.383C813.157 159.018 811.4 158.4 810.609 156.95C809.731 155.341 807.69 154.786 806.118 155.729L804.647 156.612C803.032 157.581 800.935 156.805 800.34 155.019C799.863 153.588 798.381 152.749 796.908 153.076L796.2 153.233C793.647 153.801 791.426 151.412 792.178 148.907C792.837 146.711 791.192 144.5 788.898 144.5H722.606C715.682 144.5 712.661 135.75 718.11 131.479C723.153 127.525 721.005 119.455 714.663 118.533L513.048 89.2092C504.729 87.9992 496.276 88.0301 487.965 89.3009L419.902 99.7091C418.641 99.902 417.416 100.281 416.266 100.835L407.051 105.272C405.648 105.947 405.07 107.64 405.766 109.032L406.239 109.977C407.213 111.926 405.276 114.052 403.245 113.262C401.684 112.655 400 113.806 400 115.482V115.709C400 117.372 398.426 118.586 396.817 118.162L392.902 117.132C391.688 116.813 390.5 117.728 390.5 118.983C390.5 120.387 389.04 121.313 387.77 120.716L385.207 119.509C383.488 118.7 381.447 119.549 380.808 121.338C380.129 123.238 377.888 124.052 376.148 123.028L374.424 122.014C372.463 120.861 369.932 121.359 368.526 123.149C366.909 125.207 363.855 125.477 361.934 123.698C360.262 122.151 357.695 122.103 355.968 123.589L355.57 123.93C353.557 125.661 350.55 125.546 348.676 123.666L348.377 123.366C346.917 121.902 344.762 121.375 342.791 122.001L339.371 123.088C337.779 123.594 336.076 122.727 335.548 121.143C334.983 119.45 333.094 118.599 331.452 119.298L330.621 119.652C328.85 120.407 326.796 119.694 325.871 118.006L325.776 117.832C325.023 116.455 323.441 115.752 321.914 116.116L318.253 116.987C316.652 117.369 315.373 115.646 316.203 114.224C316.843 113.126 316.226 111.723 314.985 111.452L207.296 87.9932C205.449 87.5909 203.698 86.8357 202.138 85.7688Z" fill="#C4E9F8"/>
</g>
<mask id="mask1_32_225" style="mask-type:alpha" maskUnits="userSpaceOnUse" x="0" y="69" width="1440" height="174">
<path d="M0 130L111.788 159.463C123.055 162.433 134.914 162.319 146.122 159.134L347.349 101.948C357.625 99.0276 368.461 98.6849 378.9 100.95L703.027 171.275C715.717 174.028 728.942 172.918 740.995 168.086L817.604 137.374C829.596 132.567 842.747 131.443 855.381 134.144L1100.37 186.523C1120.85 190.903 1142.19 185.142 1157.69 171.048L1250.3 86.8258C1269.53 69.3373 1297.33 64.9876 1320.99 75.7665L1440 130V243H0V130Z" fill="#7BCEEF"/>
</mask>
<g mask="url(#mask1_32_225)">
<path d="M137 86L1295 64L1440 86V156L1287.5 50L1139.08 186.526C1126.57 198.04 1109.05 202.402 1092.6 198.104L839.5 132L818.5 137L717.923 177.73C704.667 183.098 690.027 184.015 676.205 180.343L370 99L137 86Z" fill="black" fill-opacity="0.04"/>
</g>
</svg>
